<?xml version="1.0" encoding="UTF-8" standalone="no"?>
<!DOCTYPE svg PUBLIC "-//W3C//DTD SVG 1.1//EN" "http://www.w3.org/Graphics/SVG/1.1/DTD/svg11.dtd">
<svg width="100%" height="100%" viewBox="0 0 34 32" version="1.1" xmlns="http://www.w3.org/2000/svg" xmlns:xlink="http://www.w3.org/1999/xlink" xml:space="preserve" xmlns:serif="http://www.serif.com/" style="fill-rule:evenodd;clip-rule:evenodd;stroke-linejoin:round;stroke-miterlimit:2;">
    <g transform="matrix(0.323911,0,0,0.219207,-804.876,-199.451)">
        <path d="M2539.49,935.311C2549.44,935.311 2559.34,932.985 2568.88,932.985C2570.81,932.985 2572.38,931.416 2572.38,929.485C2572.38,927.553 2570.81,925.985 2568.88,925.985C2559.34,925.985 2549.44,928.311 2539.49,928.311C2537.55,928.311 2535.99,929.879 2535.99,931.811C2535.99,933.742 2537.55,935.311 2539.49,935.311Z"/>
    </g>
    <g transform="matrix(0.219207,0,0,0.219207,-535.536,-199.451)">
        <path d="M2579.61,1027.49C2579.65,1027.71 2579.68,1027.94 2579.68,1028.17C2579.68,1030.7 2577.74,1031.34 2577.53,1031.42C2576.44,1031.88 2575.25,1031.9 2574.04,1030.97C2573.91,1030.87 2572.97,1030.29 2572.71,1028.72C2572.64,1028.3 2572.3,1024.49 2572.3,1023.3C2572.3,1019.86 2571.82,1016.26 2571.45,1012.84C2570.26,1001.61 2569.8,989.839 2569.8,978.534C2569.8,962.407 2570,956.99 2568.94,953.335C2567.79,949.374 2568.13,947.112 2565.38,929.641C2565.38,927.709 2566.95,926.141 2568.88,926.141C2570.81,926.141 2572.2,927.718 2572.38,929.641C2573.9,945.763 2574.6,947.726 2575.66,951.382C2576.81,955.344 2576.8,961.057 2576.8,978.534C2576.8,989.594 2577.24,1001.11 2578.41,1012.09C2578.81,1015.76 2579.3,1019.62 2579.3,1023.3C2579.3,1024.14 2579.55,1026.91 2579.61,1027.49ZM2574.41,1025.14C2573.79,1025.46 2572.68,1026.27 2572.68,1028.17C2572.68,1026.88 2573.38,1025.75 2574.41,1025.14ZM2577.22,1024.83C2576.81,1024.69 2576.41,1024.64 2576.01,1024.67L2576.18,1024.67C2576.54,1024.67 2576.89,1024.72 2577.22,1024.83Z"/>
    </g>
    <g transform="matrix(0.219207,0,0,0.219207,-535.536,-199.451)">
        <path d="M2547.71,1026.09C2556.94,1024.57 2566.73,1024.29 2576.18,1024.29C2578.11,1024.29 2579.68,1025.86 2579.68,1027.79C2579.68,1029.72 2578.11,1031.29 2576.18,1031.29C2567.07,1031.29 2557.63,1031.54 2548.74,1033.01C2548.23,1033.1 2543.8,1033.32 2542.54,1033.39C2542,1033.73 2541.36,1033.93 2540.67,1033.93C2538.74,1033.93 2537.17,1032.36 2537.17,1030.43C2537.17,1029.31 2537.6,1028.03 2539.11,1027.16C2539.69,1026.82 2540.93,1026.45 2542.47,1026.31C2544.26,1026.14 2547.46,1026.09 2547.71,1026.09ZM2544.17,1030.62C2544.15,1030.93 2544.1,1031.23 2544,1031.51C2544.1,1031.22 2544.15,1030.92 2544.17,1030.62ZM2544.17,1030.6C2544.17,1030.55 2544.17,1030.49 2544.17,1030.43L2544.17,1030.6Z"/>
    </g>
    <g transform="matrix(1.15388,0,0,1.15388,-1.90333,-2.23599)">
        <path d="M22.327,20.236C22.341,20.215 22.354,20.196 22.367,20.181C22.427,20.111 22.496,20.071 22.557,20.049C22.714,19.991 22.877,19.999 23.031,20.158C23.197,20.329 23.193,20.5 23.123,20.659C23.11,20.689 23.063,20.738 23.011,20.785C22.97,20.844 22.917,20.89 22.856,20.921C22.755,21.02 22.643,21.113 22.535,21.203C22.474,21.253 22.461,21.254 22.388,21.307C21.997,21.591 21.552,21.796 21.159,22.079C20.385,22.636 19.534,23.131 18.859,23.807C18.551,24.115 18.204,24.378 17.882,24.672C17.743,24.798 17.586,24.969 17.402,25.032C17.175,25.108 16.929,24.986 16.853,24.759C16.778,24.538 16.892,24.299 17.108,24.217C17.125,24.199 17.242,24.082 17.298,24.031C17.61,23.747 17.948,23.493 18.245,23.195C18.954,22.485 19.841,21.96 20.653,21.375C21.044,21.093 21.489,20.889 21.878,20.606C21.93,20.568 21.94,20.569 21.983,20.534C22.081,20.453 22.184,20.369 22.274,20.279C22.285,20.267 22.305,20.252 22.327,20.236ZM22.84,20.929L22.84,20.929L22.837,20.932L22.84,20.929Z"/>
        <path d="M22.309,28.772L22.309,28.768L22.309,28.652C22.309,28.598 22.306,28.546 22.301,28.493C22.279,28.286 22.275,28.057 22.275,27.849C22.275,27.235 22.161,26.622 22.161,26.006C22.161,24.179 22.222,22.367 22.222,20.538C22.222,20.298 22.416,20.104 22.656,20.104C22.895,20.104 23.089,20.298 23.089,20.538C23.089,22.367 23.028,24.179 23.028,26.006C23.028,26.622 23.142,27.235 23.142,27.849C23.142,28.027 23.144,28.224 23.162,28.401C23.171,28.485 23.175,28.567 23.175,28.652L23.175,28.768L23.175,28.772C23.173,29.279 22.957,29.372 22.742,29.291C22.527,29.372 22.312,29.279 22.309,28.772Z"/>
        <path d="M17.079,25.202C16.914,25.141 16.797,24.982 16.797,24.796C16.797,24.619 16.879,24.514 16.967,24.445C17.048,24.383 17.161,24.333 17.315,24.359C17.363,24.368 17.464,24.399 17.575,24.485C17.693,24.576 17.912,24.797 17.983,24.844C18.355,25.089 18.743,25.537 19.082,25.841C19.438,26.161 19.869,26.397 20.249,26.686C20.718,27.041 21.165,27.411 21.662,27.729C21.83,27.837 22.04,27.976 22.258,28.088C22.423,28.173 22.59,28.248 22.742,28.248C22.981,28.248 23.175,28.443 23.175,28.682C23.175,28.921 22.981,29.115 22.742,29.115C22.246,29.115 21.612,28.726 21.195,28.459C20.678,28.129 20.212,27.746 19.725,27.376C19.326,27.074 18.876,26.822 18.503,26.486C18.193,26.207 17.845,25.791 17.506,25.567C17.439,25.523 17.179,25.292 17.079,25.202ZM17.524,25.114C17.605,25.048 17.663,24.95 17.663,24.796C17.663,24.921 17.61,25.035 17.524,25.114Z"/>
        <path d="M18.912,23.584C19.057,23.477 19.189,23.356 19.328,23.243C19.799,22.861 20.278,22.499 20.746,22.115C20.976,21.926 21.265,21.753 21.472,21.547C21.518,21.501 21.562,21.448 21.591,21.39C21.615,21.344 21.661,21.231 21.683,21.197C21.715,21.147 21.748,21.114 21.773,21.093C21.914,20.974 22.055,20.977 22.159,21.003C22.24,21.023 22.318,21.064 22.385,21.141C22.419,21.181 22.492,21.265 22.492,21.436C22.492,22.79 22.449,24.149 22.449,25.509C22.449,25.924 22.388,26.379 22.473,26.784C22.506,26.939 22.552,27.09 22.583,27.245C22.601,27.334 22.629,27.512 22.629,27.512C22.662,27.705 22.561,27.897 22.383,27.979C22.204,28.061 21.993,28.013 21.868,27.861C21.868,27.861 21.715,27.653 21.624,27.563C21.45,27.39 21.192,27.297 20.995,27.149C20.345,26.661 19.667,26.201 19.024,25.698C18.773,25.502 18.524,25.311 18.282,25.103C18.221,25.051 18.157,25.001 18.094,24.952C18.102,24.958 18.129,24.976 18.129,24.976C18.129,24.976 17.94,24.831 17.923,24.805C17.783,24.596 17.838,24.42 17.948,24.286C17.989,24.236 18.079,24.127 18.289,24.127C18.364,24.127 18.435,24.147 18.497,24.181C18.481,24.095 18.495,23.998 18.554,23.888C18.575,23.85 18.616,23.79 18.687,23.733C18.741,23.689 18.873,23.608 18.912,23.584ZM21.568,26.327C21.517,26.359 21.468,26.377 21.421,26.385L21.515,26.455C21.533,26.469 21.552,26.483 21.572,26.496C21.569,26.44 21.568,26.384 21.568,26.327ZM19.04,24.607C19.21,24.746 19.384,24.879 19.558,25.015C19.988,25.352 20.434,25.669 20.877,25.989L20.871,25.965C20.818,25.89 20.754,25.814 20.687,25.748C20.406,25.466 20.05,25.256 19.747,24.994C19.602,24.868 19.426,24.682 19.235,24.627C19.168,24.608 19.102,24.614 19.04,24.607ZM18.437,24.968C18.391,24.985 18.341,24.994 18.289,24.994C18.351,24.994 18.4,24.982 18.437,24.968ZM20.963,23.954C20.897,24.03 20.832,24.102 20.766,24.171C20.794,24.229 20.81,24.294 20.81,24.363C20.81,24.501 20.771,24.596 20.723,24.66L20.816,24.729C20.837,24.745 20.858,24.761 20.879,24.777L20.905,24.797C20.905,24.662 20.907,24.527 20.914,24.393C20.922,24.248 20.939,24.101 20.963,23.954ZM19.874,23.916L19.822,23.958L19.867,23.987L19.892,24.004C19.9,23.959 19.911,23.915 19.926,23.874L19.874,23.916Z"/>
        <path d="M19.483,25.16C19.47,25.142 19.424,25.081 19.392,25.048C19.271,24.929 19.128,24.822 19.04,24.733C18.871,24.564 18.871,24.29 19.04,24.121C19.209,23.951 19.484,23.951 19.653,24.121C19.764,24.232 19.956,24.372 20.092,24.529C20.254,24.714 20.348,24.924 20.348,25.132C20.348,25.371 20.154,25.565 19.915,25.565C19.685,25.565 19.497,25.386 19.483,25.16Z"/>
    </g>
    <g transform="matrix(0.284962,0,0,0.147262,-645.632,-123.579)">
        <path d="M2316.68,1016.66L2288.92,1016.66C2286.99,1016.66 2285.42,1018.99 2285.42,1021.87C2285.42,1024.74 2286.99,1027.08 2288.92,1027.08L2316.68,1027.08C2318.61,1027.08 2320.18,1024.74 2320.18,1021.87C2320.18,1018.99 2318.61,1016.66 2316.68,1016.66Z"/>
    </g>
    <g transform="matrix(0.219207,0,0,0.147262,-495.353,-125.268)">
        <path d="M2274.33,893.664C2274.16,892.667 2274.18,891.584 2274.44,890.546C2274.88,888.79 2275.66,888.046 2276.24,887.646C2277.18,886.989 2278.21,886.896 2279.3,887.713C2279.4,887.79 2280.82,888.654 2281.2,891.64C2281.43,893.383 2282.37,902.929 2282.37,906.539C2282.37,915.815 2285.32,925.57 2285.32,935.339C2285.32,964.092 2292.42,1004.42 2292.42,1033.34C2292.42,1036.21 2290.85,1038.55 2288.92,1038.55C2286.99,1038.55 2285.42,1036.21 2285.42,1033.34C2285.42,1004.42 2278.32,964.092 2278.32,935.339C2278.32,925.57 2275.37,915.815 2275.37,906.539C2275.37,903.544 2274.42,894.469 2274.33,893.664ZM2279.11,897.147C2278.31,897.665 2277.38,897.739 2276.5,897.249L2276.36,897.164C2277.33,897.799 2278.25,897.709 2279.11,897.147ZM2279.24,897.057L2279.19,897.095L2279.2,897.087L2279.24,897.057ZM2280.93,894.451C2280.6,895.571 2280.03,896.44 2279.35,896.974C2279.88,896.576 2280.52,895.878 2280.93,894.451Z"/>
    </g>
    <g transform="matrix(0.219207,0,0,0.219207,-495.353,-189.468)">
        <path d="M2277.72,896.247C2284.86,896.247 2291.64,894.506 2298.53,894.506C2300.47,894.506 2302.03,892.938 2302.03,891.006C2302.03,889.075 2300.47,887.506 2298.53,887.506C2291.64,887.506 2284.86,889.247 2277.72,889.247C2275.79,889.247 2274.22,890.816 2274.22,892.747C2274.22,894.679 2275.79,896.247 2277.72,896.247Z"/>
    </g>
    <g transform="matrix(1.15388,0,0,1.15388,-1.90333,-2.23599)">
        <path d="M8.152,3.065C8.157,2.544 8.371,2.445 8.586,2.526C8.8,2.445 9.014,2.544 9.019,3.065L9.019,3.071L9.019,3.243C9.019,3.357 9.015,3.457 9.041,3.569C9.148,4.042 9.278,4.519 9.329,5.003C9.372,5.407 9.301,5.822 9.341,6.226C9.435,7.172 9.507,8.13 9.662,9.068C9.724,9.438 9.769,9.818 9.806,10.189C9.817,10.298 9.833,10.405 9.849,10.512C9.852,10.536 9.862,10.625 9.865,10.655C9.869,10.678 9.871,10.702 9.871,10.726C9.871,10.922 9.772,11.004 9.757,11.021C9.657,11.129 9.543,11.162 9.434,11.161C9.394,11.16 9.082,11.155 9.013,10.813C9.01,10.801 8.997,10.675 8.991,10.639C8.973,10.518 8.956,10.398 8.944,10.276C8.908,9.923 8.866,9.562 8.807,9.21C8.649,8.253 8.575,7.277 8.478,6.312C8.438,5.909 8.51,5.496 8.467,5.094C8.42,4.644 8.296,4.201 8.196,3.762C8.155,3.582 8.152,3.424 8.152,3.243L8.152,3.071L8.152,3.065ZM9.294,10.317C9.195,10.349 9.015,10.441 9.005,10.703C9.015,10.524 9.132,10.374 9.294,10.317ZM9.44,10.293C9.522,10.293 9.599,10.317 9.665,10.357C9.589,10.308 9.512,10.292 9.44,10.293Z"/>
        <path d="M9.907,11.004C10.024,11.081 10.101,11.214 10.101,11.365C10.101,11.604 9.907,11.799 9.668,11.799C9.45,11.799 9.257,11.683 9.14,11.446C9.033,11.232 9.004,10.857 9.004,10.726C9.004,10.487 9.199,10.293 9.438,10.293C9.677,10.293 9.871,10.487 9.871,10.726C9.871,10.769 9.894,10.92 9.907,11.004Z"/>
        <path d="M13.689,6.137C13.761,5.998 13.907,5.903 14.074,5.903C14.313,5.903 14.507,6.097 14.507,6.336C14.507,6.402 14.49,6.511 14.41,6.625C14.357,6.7 14.224,6.825 14.194,6.859C13.99,7.089 13.795,7.31 13.62,7.56C12.844,8.667 11.877,9.606 11.006,10.629C10.766,10.911 10.532,11.16 10.257,11.407C10.225,11.436 10.101,11.532 10.049,11.572C9.975,11.707 9.832,11.799 9.668,11.799C9.429,11.799 9.235,11.604 9.235,11.365C9.235,11.276 9.262,11.157 9.354,11.042C9.429,10.948 9.617,10.818 9.677,10.763C9.923,10.542 10.132,10.319 10.346,10.067C11.199,9.065 12.15,8.147 12.91,7.062C13.104,6.786 13.319,6.541 13.545,6.285C13.561,6.266 13.654,6.173 13.689,6.137Z"/>
        <path d="M9.543,3.689C9.593,4.001 9.572,4.321 9.589,4.643C9.616,5.112 9.634,5.566 9.689,6.034C9.767,6.702 9.964,7.359 10.019,8.025C10.03,8.157 10.07,8.308 10.086,8.452C10.103,8.616 10.095,8.773 10.048,8.912C9.972,9.138 9.727,9.261 9.5,9.185C9.273,9.109 9.151,8.863 9.226,8.636C9.247,8.574 9.219,8.5 9.206,8.425C9.186,8.311 9.164,8.199 9.155,8.096C9.102,7.44 8.905,6.793 8.828,6.134C8.771,5.649 8.751,5.178 8.724,4.691C8.705,4.354 8.763,4.016 8.656,3.697C8.624,3.601 8.42,3.241 8.386,3.053C8.345,2.827 8.427,2.666 8.521,2.573C8.676,2.421 8.851,2.383 9.033,2.415C9.127,2.431 9.226,2.473 9.32,2.531C9.373,2.563 9.422,2.607 9.461,2.626C9.771,2.78 10.106,3.033 10.407,3.233C11.12,3.71 11.831,4.194 12.523,4.688C12.789,4.878 13.158,5.251 13.432,5.344C13.593,5.398 13.76,5.535 13.916,5.699C13.98,5.767 14.096,5.875 14.129,5.906C14.342,5.933 14.507,6.115 14.507,6.336C14.507,6.575 14.313,6.769 14.074,6.769C13.864,6.769 13.646,6.656 13.452,6.467C13.387,6.404 13.323,6.332 13.259,6.266C13.222,6.227 13.153,6.169 13.143,6.16C12.807,6.041 12.341,5.623 12.019,5.393C11.335,4.905 10.631,4.426 9.925,3.954C9.802,3.872 9.673,3.779 9.543,3.689Z"/>
        <path d="M12.349,6.275C12.37,6.225 12.401,6.179 12.441,6.138C12.61,5.969 12.885,5.969 13.054,6.138C13.147,6.231 13.242,6.392 13.15,6.623C13.131,6.674 13.073,6.769 12.983,6.87C12.89,6.975 12.744,7.113 12.709,7.161C12.647,7.247 12.66,7.238 12.591,7.322C12.55,7.373 12.501,7.417 12.459,7.468C11.942,8.102 11.478,8.774 10.917,9.379C10.814,9.49 10.661,9.621 10.535,9.764C10.481,9.824 10.412,9.875 10.412,9.943C10.412,10.182 10.218,10.377 9.979,10.377C9.74,10.377 9.545,10.182 9.545,9.943C9.545,9.724 9.638,9.503 9.793,9.301C9.94,9.11 10.148,8.934 10.281,8.79C10.83,8.198 11.282,7.54 11.788,6.92C11.83,6.869 11.879,6.825 11.92,6.774C11.971,6.712 11.961,6.717 12.007,6.653C12.047,6.598 12.274,6.355 12.349,6.275ZM12.427,6.736C12.431,6.741 12.436,6.746 12.441,6.751L12.427,6.736ZM12.347,6.61C12.366,6.657 12.392,6.698 12.425,6.734C12.391,6.696 12.365,6.654 12.347,6.61ZM12.344,6.603L12.345,6.606L12.344,6.603Z"/>
        <path d="M9.693,5.176C9.629,4.959 9.525,4.769 9.424,4.567C9.392,4.503 9.301,4.268 9.307,4.134C9.313,3.984 9.377,3.87 9.464,3.791C9.553,3.711 9.715,3.616 9.943,3.718C10.017,3.75 10.285,4.003 10.305,4.022C10.417,4.135 10.538,4.201 10.669,4.289L10.696,4.307C10.724,4.284 10.752,4.267 10.777,4.254C10.963,4.159 11.125,4.187 11.268,4.287C11.325,4.327 11.381,4.385 11.426,4.465C11.48,4.563 11.516,4.731 11.526,4.784C11.54,4.853 11.548,4.922 11.552,4.992C11.83,5.235 12.108,5.479 12.408,5.69C12.449,5.719 12.52,5.777 12.591,5.836C12.837,5.878 13.08,5.922 13.32,5.993C13.354,6.002 13.531,6.046 13.604,6.081C13.722,6.136 13.79,6.217 13.825,6.276C13.908,6.417 13.91,6.56 13.84,6.702C13.778,6.826 13.66,6.938 13.467,6.986C13.302,7.027 12.858,6.997 12.79,6.992C12.522,7.058 12.235,7.296 12,7.433L11.958,7.459C11.933,7.508 11.9,7.55 11.863,7.585C11.788,7.655 11.712,7.698 11.638,7.722C11.621,7.742 11.604,7.762 11.587,7.783C11.526,7.86 11.431,7.958 11.352,8.018C11.316,8.045 11.266,8.073 11.204,8.093C11.178,8.101 11.141,8.108 11.108,8.113C11.073,8.12 11.039,8.123 11.006,8.123C10.99,8.123 10.974,8.123 10.959,8.121C10.956,8.243 10.95,8.365 10.94,8.487C10.942,8.565 10.945,8.762 10.93,8.818C10.905,8.912 10.86,8.975 10.822,9.015C10.712,9.132 10.589,9.164 10.472,9.159C10.364,9.155 10.22,9.109 10.11,8.96C10.037,8.861 9.959,8.621 9.959,8.619C9.886,8.353 9.838,8.081 9.771,7.814C9.631,7.258 9.563,6.697 9.533,6.121C9.53,6.066 9.487,5.737 9.495,5.581C9.504,5.396 9.584,5.28 9.632,5.23C9.652,5.209 9.672,5.191 9.693,5.176ZM11.001,7.69L11.001,7.69C11.001,7.69 11.001,7.69 11.001,7.69C11.001,7.69 11.001,7.69 11.001,7.69L11.001,7.69Z"/>
    </g>
    <g transform="matrix(0.147598,0,0,0.147598,-165.121,-36.0826)">
        <path d="M1189.74,353.702L1189.67,353.638C1188.74,352.741 1187.57,350.182 1187.05,346.978C1186.39,342.889 1186.6,337.807 1187.9,335.31C1191.71,327.951 1198.39,326.213 1205.39,326.559C1207.16,326.646 1208.95,326.882 1210.67,327.164C1211.08,327.161 1211.49,327.228 1211.89,327.37C1215.15,327.943 1218.15,328.596 1220.39,328.596C1222.32,328.596 1223.89,330.164 1223.89,332.096C1223.89,334.028 1222.32,335.596 1220.39,335.596C1220.22,335.596 1220.05,335.593 1219.88,335.585C1220.2,336.479 1220.44,337.678 1220.52,339.033C1220.71,342.037 1220.28,345.967 1219.87,347.617C1218.05,354.97 1211.98,358.193 1205.38,358.572C1202.55,358.734 1199.64,358.337 1197.04,357.564C1196.71,357.692 1196.36,357.772 1195.99,357.795C1195.8,357.914 1194.53,358.721 1193.84,359.488C1192.3,361.21 1190.86,363.815 1191.92,366.388C1192.47,367.694 1193.56,368.361 1194.88,368.786C1196.91,369.443 1199.4,369.557 1202.02,369.589C1208.57,369.668 1215.82,369.31 1220.77,371.785C1221.41,372.11 1222.15,372.69 1222.81,373.602C1223.58,374.664 1224.39,376.405 1225.02,378.41C1225.89,381.146 1226.46,384.386 1226.42,386.718C1226.4,388.226 1226.1,389.465 1225.67,390.307C1224.53,392.571 1222.35,394.455 1219.38,395.745C1215.79,397.304 1210.97,398.042 1206.14,397.9C1201.33,397.758 1196.52,396.746 1192.94,394.988C1190.03,393.563 1187.88,391.615 1186.75,389.353C1184.39,384.635 1185.33,380.434 1186.96,377.009C1187.5,375.867 1188.3,374.456 1188.87,373.478C1187.39,372.381 1186.23,370.936 1185.46,369.069C1183.28,363.822 1185.48,358.327 1188.62,354.816C1188.99,354.415 1189.36,354.043 1189.74,353.702ZM1195.46,376.094C1195.23,376.548 1194.96,377.024 1194.67,377.516C1193.4,379.629 1191.21,382.617 1193.01,386.222C1193.54,387.277 1194.67,388.039 1196.02,388.703C1198.82,390.076 1202.59,390.792 1206.34,390.903C1210.08,391.013 1213.82,390.53 1216.59,389.325C1217.81,388.793 1218.85,388.177 1219.36,387.266C1219.37,387.018 1219.4,385.399 1219.23,384.261C1218.88,382.036 1217.5,378.601 1217.18,377.836C1214.94,376.864 1212.15,376.675 1209.25,376.608C1205.53,376.522 1201.64,376.707 1198.2,376.437C1197.25,376.363 1196.33,376.25 1195.46,376.094ZM1209.37,333.995C1207.94,333.787 1206.49,333.621 1205.05,333.55C1200.75,333.338 1196.45,334.011 1194.11,338.532C1193.3,340.098 1193.55,343.302 1193.96,345.867C1194.14,346.965 1194.61,348.416 1194.73,348.782C1196.87,350.661 1201.06,351.808 1204.98,351.583C1208.57,351.377 1212.09,349.928 1213.08,345.93C1213.34,344.862 1213.59,342.526 1213.57,340.452C1213.56,339.488 1213.6,338.588 1213.36,338.1C1213.17,337.73 1213.04,337.199 1212.96,336.814C1212.56,336.448 1211.28,335.325 1209.37,333.995Z" style="stroke:black;stroke-width:2.82px;"/>
    </g>
    <g transform="matrix(0.147598,0,0,0.147598,-69.1852,-62.4286)">
        <path d="M605.35,485.91C602.889,485.961 598.535,486.05 598.055,486.05C596.123,486.05 594.555,484.482 594.555,482.55C594.555,480.618 596.123,479.05 598.055,479.05C598.749,479.05 604.66,478.544 607.526,478.876C609.322,479.084 610.508,479.799 611.027,480.334C611.275,480.591 611.943,481.423 612.142,482.99C612.577,486.404 612.582,501.384 612.582,504.821C612.582,512.388 612.279,526.546 613.077,535.319C613.281,537.57 613.894,540.253 614.017,540.779C614.847,541.453 616.457,542.154 617.982,542.568C618.663,542.752 619.317,542.968 619.82,542.889C620.555,542.427 621.809,541.714 622.533,541.714C624.465,541.714 626.033,543.282 626.033,545.214C626.033,546.663 625.15,547.908 623.893,548.439C623.448,548.786 622.737,549.306 622.308,549.456C620.737,550.002 618.467,549.952 616.151,549.324C613.199,548.524 610.195,546.863 608.889,545.576C608.349,545.045 607.78,544.196 607.352,542.984C606.807,541.444 606.381,538.98 606.105,535.953C605.291,526.998 605.582,512.546 605.582,504.821C605.582,501.997 605.607,491.055 605.35,485.91Z" style="stroke:black;stroke-width:2.82px;"/>
    </g>
</svg>
