<?xml version="1.0" encoding="UTF-8" standalone="no"?>
<!DOCTYPE svg PUBLIC "-//W3C//DTD SVG 1.1//EN" "http://www.w3.org/Graphics/SVG/1.1/DTD/svg11.dtd">
<svg width="100%" height="100%" viewBox="0 0 311 226" version="1.1" xmlns="http://www.w3.org/2000/svg" xmlns:xlink="http://www.w3.org/1999/xlink" xml:space="preserve" xmlns:serif="http://www.serif.com/" style="fill-rule:evenodd;clip-rule:evenodd;stroke-linejoin:round;stroke-miterlimit:2;">
    <g transform="matrix(1,0,0,1,-1131.66,-326.517)">
        <path d="M1189.74,353.702L1189.67,353.638C1188.74,352.741 1187.57,350.182 1187.05,346.978C1186.39,342.889 1186.6,337.807 1187.9,335.31C1191.71,327.951 1198.39,326.213 1205.39,326.559C1207.16,326.646 1208.95,326.882 1210.67,327.164C1211.08,327.161 1211.49,327.228 1211.89,327.37C1215.15,327.943 1218.15,328.596 1220.39,328.596C1222.32,328.596 1223.89,330.164 1223.89,332.096C1223.89,334.028 1222.32,335.596 1220.39,335.596C1220.22,335.596 1220.05,335.593 1219.88,335.585C1220.2,336.479 1220.44,337.678 1220.52,339.033C1220.71,342.037 1220.28,345.967 1219.87,347.617C1218.05,354.97 1211.98,358.193 1205.38,358.572C1202.55,358.734 1199.64,358.337 1197.04,357.564C1196.71,357.692 1196.36,357.772 1195.99,357.795C1195.8,357.914 1194.53,358.721 1193.84,359.488C1192.3,361.21 1190.86,363.815 1191.92,366.388C1192.47,367.694 1193.56,368.361 1194.88,368.786C1196.91,369.443 1199.4,369.557 1202.02,369.589C1208.57,369.668 1215.82,369.31 1220.77,371.785C1221.41,372.11 1222.15,372.69 1222.81,373.602C1223.58,374.664 1224.39,376.405 1225.02,378.41C1225.89,381.146 1226.46,384.386 1226.42,386.718C1226.4,388.226 1226.1,389.465 1225.67,390.307C1224.53,392.571 1222.35,394.455 1219.38,395.745C1215.79,397.304 1210.97,398.042 1206.14,397.9C1201.33,397.758 1196.52,396.746 1192.94,394.988C1190.03,393.563 1187.88,391.615 1186.75,389.353C1184.39,384.635 1185.33,380.434 1186.96,377.009C1187.5,375.867 1188.3,374.456 1188.87,373.478C1187.39,372.381 1186.23,370.936 1185.46,369.069C1183.28,363.822 1185.48,358.327 1188.62,354.816C1188.99,354.415 1189.36,354.043 1189.74,353.702ZM1195.46,376.094C1195.23,376.548 1194.96,377.024 1194.67,377.516C1193.4,379.629 1191.21,382.617 1193.01,386.222C1193.54,387.277 1194.67,388.039 1196.02,388.703C1198.82,390.076 1202.59,390.792 1206.34,390.903C1210.08,391.013 1213.82,390.53 1216.59,389.325C1217.81,388.793 1218.85,388.177 1219.36,387.266C1219.37,387.018 1219.4,385.399 1219.23,384.261C1218.88,382.036 1217.5,378.601 1217.18,377.836C1214.94,376.864 1212.15,376.675 1209.25,376.608C1205.53,376.522 1201.64,376.707 1198.2,376.437C1197.25,376.363 1196.33,376.25 1195.46,376.094ZM1209.37,333.995C1207.94,333.787 1206.49,333.621 1205.05,333.55C1200.75,333.338 1196.45,334.011 1194.11,338.532C1193.3,340.098 1193.55,343.302 1193.96,345.867C1194.14,346.965 1194.61,348.416 1194.73,348.782C1196.87,350.661 1201.06,351.808 1204.98,351.583C1208.57,351.377 1212.09,349.928 1213.08,345.93C1213.34,344.862 1213.59,342.526 1213.57,340.452C1213.56,339.488 1213.6,338.588 1213.36,338.1C1213.17,337.73 1213.04,337.199 1212.96,336.814C1212.56,336.448 1211.28,335.325 1209.37,333.995Z"/>
    </g>
    <g transform="matrix(1,0,0,1,-1131.66,-326.517)">
        <path d="M1265.92,349.179C1265.73,347.528 1265.47,345.927 1265.12,344.408C1264,339.656 1262.04,335.702 1257.67,334.539C1253.14,333.331 1248.34,334.657 1245.33,334.657C1243.39,334.657 1241.83,333.089 1241.83,331.157C1241.83,329.225 1243.39,327.657 1245.33,327.657C1248.78,327.657 1254.28,326.39 1259.47,327.775C1266.37,329.612 1270.17,335.305 1271.93,342.811C1274.14,352.252 1273.07,364.699 1273.07,373.142C1273.07,373.187 1273.07,373.232 1273.06,373.277L1273.06,373.322C1273.06,373.367 1273.06,373.411 1273.05,373.455L1273.05,373.5C1273.04,373.588 1273.03,373.675 1273.01,373.761L1273,373.804C1272.87,374.502 1272.53,375.127 1272.05,375.611C1271.98,375.673 1271.92,375.731 1271.86,375.788L1271.82,375.815C1271.79,375.841 1271.76,375.867 1271.73,375.892C1271.71,375.907 1271.69,375.923 1271.67,375.938C1271.64,375.959 1271.62,375.98 1271.59,376C1271.43,376.107 1271.27,376.203 1271.1,376.286C1271.03,376.321 1270.96,376.353 1270.89,376.383L1270.85,376.399L1270.81,376.414L1270.79,376.421C1270.72,376.449 1270.64,376.475 1270.56,376.498L1270.52,376.509L1270.51,376.513C1270.43,376.534 1270.36,376.553 1270.28,376.569C1270.23,376.579 1270.18,376.588 1270.13,376.596L1270.1,376.602L1270.06,376.608L1270.03,376.611C1269.92,376.626 1269.81,376.635 1269.7,376.639C1269.66,376.641 1269.61,376.642 1269.57,376.642C1263.57,376.642 1257.16,377.951 1251.78,377.464C1247.25,377.055 1243.36,375.505 1240.51,371.87C1238.56,369.388 1237.69,365.266 1238.03,361.765C1238.29,359.037 1239.3,356.734 1240.58,355.497C1245.37,350.877 1245.38,350.826 1251.77,349.626C1256.56,348.728 1263.09,348.956 1264.16,349.001C1264.34,348.974 1264.52,348.959 1264.7,348.959C1265.13,348.959 1265.54,349.037 1265.92,349.179ZM1266.34,355.586C1265.91,355.808 1265.37,355.959 1264.71,355.997C1263.62,356.058 1257.92,355.595 1253.06,356.506C1248.7,357.324 1248.71,357.382 1245.45,360.531C1245.08,360.887 1245.07,361.64 1245,362.425C1244.83,364.183 1245.04,366.304 1246.02,367.551C1248.1,370.214 1251.3,370.603 1254.8,370.582C1258.38,370.561 1262.28,370.017 1266.12,369.767C1266.23,365.471 1266.47,360.494 1266.34,355.586ZM1261.2,352.401C1261.22,351.405 1261.65,350.51 1262.34,349.882C1261.89,350.269 1261.61,350.696 1261.44,351.135C1261.27,351.554 1261.21,351.984 1261.2,352.401C1261.2,352.42 1261.2,352.44 1261.2,352.459L1261.2,352.401Z"/>
    </g>
    <g transform="matrix(1,0,0,1,-1131.66,-326.517)">
        <path d="M1307.19,331.734C1307.75,331.016 1308.3,330.356 1308.69,329.965C1309.34,329.308 1309.94,328.99 1310.27,328.861C1313.96,327.403 1318.46,326.031 1322.4,327.975C1324.22,328.874 1326.01,330.447 1327.51,333.17C1329.52,336.818 1330.61,342.168 1331.09,348.14C1331.75,356.315 1331.36,365.722 1331.47,372.899C1331.5,374.83 1329.96,376.423 1328.03,376.454C1326.1,376.485 1324.5,374.942 1324.47,373.011C1324.36,365.964 1324.76,356.727 1324.11,348.7C1323.72,343.871 1323.01,339.505 1321.38,336.555C1320.74,335.396 1320.08,334.635 1319.3,334.252C1318.49,333.853 1317.63,333.916 1316.78,334.075C1315.65,334.286 1314.54,334.702 1313.5,335.113L1311.14,338.249C1310.88,338.845 1310.47,339.356 1309.94,339.726C1313.26,352.112 1312.89,360.666 1312.89,372.955C1312.89,374.886 1311.32,376.455 1309.39,376.455C1307.46,376.455 1305.89,374.886 1305.89,372.955C1305.89,359.709 1306.43,351.051 1301.64,336.363C1301.38,335.561 1301.08,334.985 1300.61,334.678C1299.92,334.222 1299.05,334.423 1298.22,334.642C1296.5,335.095 1294.84,336.067 1293.86,336.765C1293.84,337.283 1293.84,338.025 1293.86,338.621C1293.95,340.873 1294.19,343.318 1294.19,343.901C1294.19,353.233 1295.42,362.374 1295.42,371.781C1295.42,373.713 1293.85,375.281 1291.92,375.281C1289.99,375.281 1288.42,373.713 1288.42,371.781C1288.42,362.374 1287.19,353.233 1287.19,343.901C1287.19,343.028 1286.67,338.018 1286.89,335.638C1287.06,333.873 1287.79,332.744 1288.3,332.267C1289.22,331.401 1292.72,328.85 1296.44,327.872C1299.24,327.135 1302.12,327.289 1304.46,328.83C1305.47,329.495 1306.42,330.428 1307.19,331.734Z"/>
    </g>
    <g transform="matrix(1,0,0,1,-556.91,-367.247)">
        <path d="M773.505,392.797C773.525,396.062 774.01,399.307 775.062,401.95C775.694,403.538 776.507,404.9 777.643,405.757C784.37,410.833 787.788,410.9 792.092,410.428C794.36,410.179 796.823,409.837 799.878,409.837C801.81,409.837 803.378,411.406 803.378,413.337C803.378,415.269 801.81,416.837 799.878,416.837C797.122,416.837 794.902,417.161 792.855,417.386C787.089,418.018 782.439,418.145 773.427,411.344C768.712,407.787 766.299,399.572 766.519,391.438C766.644,386.804 767.562,382.251 769.108,378.795C770.348,376.024 772.029,373.911 773.939,372.687C782.356,367.292 788.575,367.314 792.996,369.327C799.629,372.346 802.654,380.598 803.412,385.611C803.709,387.577 803.654,389.101 803.509,389.792C803.31,390.741 802.889,391.333 802.574,391.68C802.212,392.079 801.634,392.541 800.736,392.851C800.119,393.064 799.101,393.256 797.769,393.348C792.409,393.721 779.981,392.896 773.682,392.804L773.505,392.797ZM796.423,386.196C796.16,384.694 795.644,382.811 794.797,380.99C793.636,378.492 791.862,376.001 788.903,375.287C786.088,374.608 782.482,375.526 777.716,378.58C776.787,379.176 776.101,380.305 775.498,381.653C774.947,382.885 774.509,384.296 774.187,385.811L780.502,385.913C783.221,385.961 785.941,386.008 788.66,386.056L796.423,386.196Z"/>
    </g>
    <g transform="matrix(1,0,0,1,-534.879,-350.944)">
        <path d="M605.35,485.91C602.889,485.961 598.535,486.05 598.055,486.05C596.123,486.05 594.555,484.482 594.555,482.55C594.555,480.618 596.123,479.05 598.055,479.05C598.749,479.05 604.66,478.544 607.526,478.876C609.322,479.084 610.508,479.799 611.027,480.334C611.275,480.591 611.943,481.423 612.142,482.99C612.577,486.404 612.582,501.384 612.582,504.821C612.582,512.388 612.279,526.546 613.077,535.319C613.281,537.57 613.894,540.253 614.017,540.779C614.847,541.453 616.457,542.154 617.982,542.568C618.663,542.752 619.317,542.968 619.82,542.889C620.555,542.427 621.809,541.714 622.533,541.714C624.465,541.714 626.033,543.282 626.033,545.214C626.033,546.663 625.15,547.908 623.893,548.439C623.448,548.786 622.737,549.306 622.308,549.456C620.737,550.002 618.467,549.952 616.151,549.324C613.199,548.524 610.195,546.863 608.889,545.576C608.349,545.045 607.78,544.196 607.352,542.984C606.807,541.444 606.381,538.98 606.105,535.953C605.291,526.998 605.582,512.546 605.582,504.821C605.582,501.997 605.607,491.055 605.35,485.91Z"/>
    </g>
    <g transform="matrix(1,0,0,1,-539.695,-353.189)">
        <path d="M678.496,545.008C681.284,537.752 682.281,531.917 681.382,524.067C680.611,517.33 680.438,511.71 676.301,507.192C674.453,505.173 671.815,503.334 667.898,501.787C662.782,499.766 657.483,501.567 653.381,506.417C648.363,512.349 645.166,523.232 647.337,535.186C648.86,543.572 657.279,550.442 664.876,551.827C670.858,552.917 676.23,550.905 678.496,545.008ZM671.962,542.498C671.021,544.945 668.614,545.393 666.131,544.94C661.036,544.012 655.246,539.559 654.224,533.935C652.494,524.406 654.726,515.666 658.726,510.937C660.639,508.675 662.939,507.354 665.327,508.297C674.582,511.953 673.613,517.749 674.427,524.863C675.184,531.475 674.31,536.386 671.962,542.498Z"/>
    </g>
    <g transform="matrix(1,0,0,1,-542.45,-350.365)">
        <path d="M723.909,550.933C728.006,549.192 730.538,546.617 732.084,542.051C735.152,532.991 736.299,521.469 733.018,512.693C729.911,504.386 723.511,497.432 713.097,499.196C706.235,500.359 702.102,505.325 700.105,511.927C697.511,520.503 698.7,531.934 701.024,538.877C702.997,544.771 706.47,547.359 711.998,549.749C712.335,549.895 714.831,550.912 717.55,551.371C719.787,551.749 722.138,551.685 723.909,550.933ZM721.172,544.49C720.49,544.78 719.578,544.614 718.715,544.469C716.787,544.143 715.014,543.427 714.776,543.323C711.286,541.815 708.907,540.375 707.662,536.655C705.704,530.806 704.62,521.179 706.805,513.954C707.994,510.021 710.179,506.791 714.266,506.098C720.838,504.984 724.501,509.903 726.461,515.145C729.219,522.519 728.031,532.193 725.454,539.806C724.641,542.206 723.326,543.575 721.172,544.49Z"/>
    </g>
    <g transform="matrix(1,0,0,1,-1131.66,-311.524)">
        <path d="M1346.75,465.091C1347.51,465.012 1350.64,464.746 1350.97,464.706C1355.43,464.151 1362,463.422 1366.33,465.135C1370.58,466.811 1373.76,470.2 1375.84,474.433C1378.69,480.243 1379.43,487.656 1378.3,493.591C1376.22,504.555 1367.36,507.558 1358.73,510.954C1355.71,512.144 1352.44,512.254 1349.18,512.254C1349.04,512.254 1348.76,512.257 1348.42,512.252C1348.32,519.341 1348.25,526.439 1348.25,533.572C1348.25,535.504 1346.68,537.072 1344.75,537.072C1342.82,537.072 1341.25,535.504 1341.25,533.572C1341.25,511.718 1341.93,490.195 1341.93,468.331C1341.93,466.4 1343.5,464.831 1345.43,464.831C1345.9,464.831 1346.34,464.924 1346.75,465.091ZM1349.99,507.382C1350.04,507.546 1350.08,507.715 1350.11,507.888C1350.14,508.062 1350.15,508.239 1350.15,508.42C1350.15,508.053 1350.1,507.706 1349.99,507.382ZM1348.52,505.275C1348.82,505.264 1349.09,505.254 1349.18,505.254C1351.56,505.254 1353.96,505.309 1356.17,504.441C1359.05,503.305 1362.03,502.295 1364.66,500.889C1367.89,499.165 1370.57,496.785 1371.43,492.287C1372.29,487.713 1371.76,481.997 1369.56,477.519C1368.27,474.893 1366.4,472.686 1363.76,471.646C1360.4,470.316 1355.3,471.222 1351.83,471.652C1351.63,471.677 1350.11,471.816 1348.92,471.924C1348.89,483.089 1348.69,494.176 1348.52,505.275Z"/>
    </g>
    <g transform="matrix(1,0,0,1,-2269.43,-853.126)">
        <path d="M2539.49,883.311C2549.44,883.311 2559.34,880.985 2568.88,880.985C2570.81,880.985 2572.38,879.416 2572.38,877.485C2572.38,875.553 2570.81,873.985 2568.88,873.985C2559.34,873.985 2549.44,876.311 2539.49,876.311C2537.55,876.311 2535.99,877.879 2535.99,879.811C2535.99,881.742 2537.55,883.311 2539.49,883.311Z" style="fill:rgb(180,180,180);"/>
    </g>
    <g transform="matrix(1,0,0,1,-2269.43,-853.126)">
        <path d="M2579.61,1027.49C2579.65,1027.71 2579.68,1027.94 2579.68,1028.17C2579.68,1030.7 2577.74,1031.34 2577.53,1031.42C2576.44,1031.88 2575.25,1031.9 2574.04,1030.97C2573.91,1030.87 2572.97,1030.29 2572.71,1028.72C2572.64,1028.3 2572.3,1024.49 2572.3,1023.3C2572.3,1019.86 2571.82,1016.26 2571.45,1012.84C2570.26,1001.61 2569.8,989.839 2569.8,978.534C2569.8,944.93 2565.38,911.355 2565.38,877.641C2565.38,875.709 2566.95,874.141 2568.88,874.141C2570.81,874.141 2572.38,875.709 2572.38,877.641C2572.38,911.355 2576.8,944.93 2576.8,978.534C2576.8,989.594 2577.24,1001.11 2578.41,1012.09C2578.81,1015.76 2579.3,1019.62 2579.3,1023.3C2579.3,1024.14 2579.55,1026.91 2579.61,1027.49ZM2574.41,1025.14C2573.79,1025.46 2572.68,1026.27 2572.68,1028.17C2572.68,1026.88 2573.38,1025.75 2574.41,1025.14ZM2577.22,1024.83C2576.81,1024.69 2576.41,1024.64 2576.01,1024.67L2576.18,1024.67C2576.54,1024.67 2576.89,1024.72 2577.22,1024.83Z" style="fill:rgb(180,180,180);"/>
    </g>
    <g transform="matrix(1,0,0,1,-2269.43,-853.126)">
        <path d="M2547.71,1026.09C2556.94,1024.57 2566.73,1024.29 2576.18,1024.29C2578.11,1024.29 2579.68,1025.86 2579.68,1027.79C2579.68,1029.72 2578.11,1031.29 2576.18,1031.29C2567.07,1031.29 2557.63,1031.54 2548.74,1033.01C2548.23,1033.1 2543.8,1033.32 2542.54,1033.39C2542,1033.73 2541.36,1033.93 2540.67,1033.93C2538.74,1033.93 2537.17,1032.36 2537.17,1030.43C2537.17,1029.31 2537.6,1028.03 2539.11,1027.16C2539.69,1026.82 2540.93,1026.45 2542.47,1026.31C2544.26,1026.14 2547.46,1026.09 2547.71,1026.09ZM2544.17,1030.62C2544.15,1030.93 2544.1,1031.23 2544,1031.51C2544.1,1031.22 2544.15,1030.92 2544.17,1030.62ZM2544.17,1030.6C2544.17,1030.55 2544.17,1030.49 2544.17,1030.43L2544.17,1030.6Z" style="fill:rgb(180,180,180);"/>
    </g>
    <g transform="matrix(1,0,0,1,-2269.43,-853.126)">
        <path d="M2531.14,1033.09C2530.68,1032.64 2530.37,1032.08 2530.21,1031.4C2530.07,1030.83 2529.96,1029.98 2530.53,1028.88C2531.06,1027.86 2532.2,1026.74 2533.82,1025.85C2535.81,1024.74 2538.79,1023.83 2540.03,1023.01C2540.76,1022.52 2544.67,1019.23 2545.48,1018.61C2547.87,1016.75 2550.11,1018.65 2550.21,1018.75C2550.66,1019.18 2551.3,1020.11 2551.44,1021.54C2551.58,1022.88 2551.27,1025.62 2551.27,1026.16C2551.27,1027.91 2552.32,1036.29 2551.89,1040.44C2551.67,1042.51 2550.94,1043.95 2550.27,1044.63C2549.76,1045.15 2548.02,1046.51 2545.7,1045.08C2544.42,1044.29 2539.11,1039.23 2538.48,1038.6C2538.08,1038.19 2537.33,1038.13 2536.67,1037.92C2535.59,1037.56 2534.55,1037.17 2533.75,1036.67C2532.33,1035.79 2531.42,1034.62 2531.14,1033.09Z" style="fill:rgb(180,180,180);"/>
    </g>
    <g transform="matrix(1,0,0,1,-2274.22,-842.265)">
        <path d="M2316.68,1018.37L2288.92,1018.37C2286.99,1018.37 2285.42,1019.94 2285.42,1021.87C2285.42,1023.8 2286.99,1025.37 2288.92,1025.37L2316.68,1025.37C2318.61,1025.37 2320.18,1023.8 2320.18,1021.87C2320.18,1019.94 2318.61,1018.37 2316.68,1018.37Z" style="fill:rgb(180,180,180);"/>
    </g>
    <g transform="matrix(1,0,0,1,-2274.22,-853.732)">
        <path d="M2274.29,893.073C2274.19,892.574 2274.19,892.044 2274.33,891.517C2274.79,889.656 2276.11,889.193 2276.74,889.007C2277.7,888.727 2278.76,888.767 2279.82,889.565C2279.89,889.614 2280.99,890.318 2281.23,892.175C2281.45,893.856 2282.37,903.058 2282.37,906.539C2282.37,915.815 2285.32,925.57 2285.32,935.339C2285.32,964.092 2292.42,1004.42 2292.42,1033.34C2292.42,1035.27 2290.85,1036.84 2288.92,1036.84C2286.99,1036.84 2285.42,1035.27 2285.42,1033.34C2285.42,1004.42 2278.32,964.092 2278.32,935.339C2278.32,925.57 2275.37,915.815 2275.37,906.539C2275.37,903.276 2274.5,894.652 2274.29,893.073ZM2279.75,895.215L2279.72,895.24L2279.72,895.24L2279.75,895.215ZM2281.07,893.4C2280.84,894.131 2280.39,894.74 2279.82,895.17C2280.2,894.894 2280.77,894.393 2281.07,893.4Z" style="fill:rgb(180,180,180);"/>
    </g>
    <g transform="matrix(1,0,0,1,-2274.22,-853.732)">
        <path d="M2277.72,896.247C2284.86,896.247 2291.64,894.506 2298.53,894.506C2300.47,894.506 2302.03,892.938 2302.03,891.006C2302.03,889.075 2300.47,887.506 2298.53,887.506C2291.64,887.506 2284.86,889.247 2277.72,889.247C2275.79,889.247 2274.22,890.816 2274.22,892.747C2274.22,894.679 2275.79,896.247 2277.72,896.247Z" style="fill:rgb(180,180,180);"/>
    </g>
    <g transform="matrix(1,0,0,1,-2269.14,-854.411)">
        <path d="M2292.59,894.844C2291.79,892.236 2291.11,889.134 2290.34,886.408C2289.93,884.967 2289.95,881.046 2289.99,880.493C2290.2,878.109 2292.09,877.526 2292.26,877.462C2293.31,877.071 2294.36,877.136 2295.38,877.797C2295.66,877.974 2296.1,878.277 2296.46,878.869C2299.25,880.366 2305.28,884.164 2307.37,886.449C2308.65,886.968 2309.55,888.226 2309.55,889.694C2309.55,889.989 2309.54,890.734 2308.98,891.655C2308.55,892.372 2306.37,895.076 2305.81,895.947C2305.22,896.862 2302.85,900.392 2301.02,902.729C2299.94,904.112 2298.91,905.122 2298.34,905.485C2296.29,906.803 2294.68,906.006 2293.78,905.189C2292.84,904.331 2292.1,902.697 2292.12,900.519C2292.14,898.797 2292.55,895.168 2292.59,894.844Z" style="fill:rgb(180,180,180);"/>
    </g>
</svg>
